<svg viewBox="0 0 200 200"  xmlns="http://www.w3.org/2000/svg">
  <path fill="#FF0066" d="M32.8,-48C44.1,-50.2,56.1,-44.8,58.6,-35.5C61.2,-26.2,54.4,-13.1,50.7,-2.1C47.1,8.9,46.7,17.8,46,30.3C45.2,42.7,44.1,58.6,36.4,64.4C28.7,70.2,14.3,65.8,-0.3,66.4C-15,67,-30,72.5,-39.4,67.6C-48.7,62.8,-52.5,47.6,-60.1,34.6C-67.7,21.6,-79.2,10.8,-84.1,-2.8C-89.1,-16.5,-87.4,-33,-76.1,-39.6C-64.8,-46.1,-43.7,-42.7,-29.4,-38.7C-15.1,-34.8,-7.6,-30.2,1.6,-33C10.7,-35.7,21.4,-45.7,32.8,-48Z" transform="translate(100 100)" />
</svg>